<svg width="33px" height="41px" version="1.1" xmlns="http://www.w3.org/2000/svg" xmlns:xlink="http://www.w3.org/1999/xlink">
    <!-- Generator: Sketch 3.7.1 (28215) - http://www.bohemiancoding.com/sketch -->
    <title>rgb</title>
    <desc>Created with Sketch.</desc>
    <defs></defs>
    <g id="Page-1" stroke="none" stroke-width="1" fill="none" fill-rule="evenodd">
        <g id="rgb">
            <g id="Layer_1">
                <path d="M12.33,26 L13.78,17.72 C12.2933959,16.5679951 11.7057535,14.5970193 12.3187809,12.8190135 C12.9318083,11.0410078 14.6093016,9.85101384 16.49,9.86 L16.49,0.67 L5.29,0.67 C4.13896043,0.67 3.03506445,1.12724869 2.22115657,1.94115657 C1.40724869,2.75506445 0.95,3.85896043 0.95,5.01 L0.95,26.29 C0.946641375,26.6914806 1.03559765,27.0883624 1.21,27.45 C2.15,29.35 5.86,35.45 16.48,40.14 L16.48,26.34 C15.0894867,26.3456136 13.7010574,26.2318628 12.33,26 L12.33,26 Z" id="Shape" fill="#E21D3E"></path>
                <path d="M27.66,0.64 L16.48,0.64 L16.48,9.83 L16.48,9.83 C18.3520786,9.82031421 20.0243225,10.9988953 20.6446816,12.7652268 C21.2650407,14.5315582 20.6970038,16.4969557 19.23,17.66 L20.68,25.98 C19.2930776,26.2214841 17.8877871,26.3419376 16.48,26.34 L16.48,40.12 C27.09,35.45 30.81,29.33 31.75,27.43 C31.9244023,27.0683624 32.0133586,26.6714806 32.01,26.27 L32.01,5 C32.0153314,3.84376397 31.5590627,2.73319949 30.7424109,1.91467032 C29.9257591,1.09614115 28.8162452,0.637323542 27.66,0.64 L27.66,0.64 Z" id="Shape" fill="#B51E23"></path>
            </g>
        </g>
    </g>
  </svg>